<?xml version="1.0" standalone="no"?>
<!DOCTYPE svg PUBLIC "-//W3C//DTD SVG 20010904//EN"
 "http://www.w3.org/TR/2001/REC-SVG-20010904/DTD/svg10.dtd">
<svg version="1.0" xmlns="http://www.w3.org/2000/svg"
 width="1920.000000pt" height="1920.000000pt" viewBox="0 0 1920.000000 1920.000000"
 preserveAspectRatio="xMidYMid meet">
<metadata>
Created by potrace 1.14, written by Peter Selinger 2001-2017
</metadata>
<g transform="translate(0.000000,1920.000000) scale(0.100000,-0.100000)"
fill="#000000" stroke="none">
<path d="M7370 19184 c-232 -31 -471 -102 -660 -195 -111 -54 -316 -196 -437
-301 -47 -41 -279 -272 -314 -314 -232 -273 -408 -575 -528 -904 -33 -92 -95
-327 -105 -400 -4 -25 -11 -79 -17 -120 -13 -90 -18 -339 -8 -395 4 -22 9 -60
13 -85 3 -25 7 -54 10 -65 2 -11 9 -41 15 -66 54 -238 223 -530 440 -763 103
-110 305 -307 403 -392 178 -155 468 -283 748 -330 19 -4 42 -8 50 -9 8 -2 23
-4 33 -4 14 -1 17 -6 11 -23 -15 -48 -182 -312 -227 -360 -7 -7 -30 -36 -52
-63 -22 -28 -44 -55 -50 -61 -6 -6 -80 -23 -165 -37 -412 -69 -784 -170 -1291
-350 -341 -121 -567 -230 -804 -386 -193 -128 -391 -300 -505 -441 -25 -30
-48 -56 -52 -58 -5 -2 -8 -7 -8 -11 0 -5 -22 -42 -49 -83 -60 -90 -142 -261
-202 -418 -24 -63 -47 -118 -52 -121 -5 -3 -8 -9 -8 -13 3 -19 0 -27 -8 -22
-5 4 -7 -3 -4 -14 3 -10 -2 -43 -11 -72 -37 -125 -89 -331 -102 -408 -2 -14
-9 -45 -14 -70 -5 -25 -12 -65 -15 -90 -3 -25 -8 -56 -10 -70 -7 -34 -20 -148
-29 -240 -19 -196 -25 -563 -12 -706 4 -38 9 -96 12 -129 5 -67 12 -128 19
-165 2 -14 7 -45 11 -70 3 -24 8 -48 10 -52 3 -5 -11 -9 -30 -9 -20 -1 -39 -2
-43 -4 -5 -1 -26 -5 -48 -10 -99 -20 -284 -114 -372 -189 -112 -95 -174 -181
-214 -296 -31 -88 -33 -269 -5 -380 26 -103 87 -234 169 -365 82 -132 118
-177 211 -271 219 -220 477 -347 827 -409 53 -10 94 -37 95 -65 5 -97 23 -208
38 -245 21 -49 57 -159 58 -175 1 -8 5 -17 9 -20 5 -3 10 -15 12 -25 1 -11 5
-24 8 -30 7 -10 27 -72 31 -90 1 -5 7 -21 14 -34 7 -14 10 -29 7 -34 -3 -6 -1
-7 5 -3 7 4 12 1 12 -9 0 -9 18 -55 40 -103 37 -78 53 -99 153 -197 386 -379
845 -672 1397 -893 105 -42 242 -93 260 -97 14 -3 68 -19 214 -66 32 -10 62
-16 66 -14 5 3 14 0 22 -7 7 -7 22 -14 33 -15 11 -2 30 -4 43 -5 12 -1 22 -6
22 -10 0 -4 9 -5 20 -3 11 2 20 0 20 -5 0 -4 10 -6 22 -2 11 3 19 1 16 -4 -4
-5 9 -9 28 -10 19 0 37 -3 40 -7 3 -3 -6 -58 -21 -121 -25 -109 -28 -116 -52
-116 -13 0 -43 -5 -67 -11 l-42 -10 0 -62 c-1 -116 -20 -196 -47 -198 -22 -2
-101 -7 -237 -13 -74 -4 -160 -9 -190 -11 -30 -2 -111 -7 -180 -10 -69 -3
-156 -8 -195 -10 -38 -3 -126 -7 -195 -10 -69 -3 -164 -8 -212 -11 -105 -6
-118 0 -210 86 -36 33 -139 117 -229 186 -90 69 -171 130 -179 137 -8 7 -49
37 -90 67 -41 30 -79 58 -85 63 -34 26 -309 229 -476 350 -79 58 -108 85 -116
110 -6 17 -21 57 -32 87 -12 30 -44 140 -72 244 -55 207 -79 267 -136 337 -67
82 -216 168 -477 274 -113 47 -123 53 -202 132 -98 97 -123 141 -131 226 -10
112 -69 233 -130 269 -24 14 -32 14 -59 3 -27 -11 -74 -61 -74 -79 0 -3 -12
-31 -26 -62 -64 -139 -80 -304 -39 -384 10 -19 44 -66 77 -103 79 -92 105
-145 99 -204 -4 -40 -128 -101 -289 -143 -128 -32 -192 -30 -229 6 -22 22 -24
31 -19 67 12 77 102 239 179 322 29 31 77 111 83 136 43 176 -11 279 -144 279
-56 0 -139 -23 -182 -49 -38 -23 -60 -51 -124 -158 -63 -103 -104 -149 -146
-160 -42 -11 -129 -52 -162 -76 -42 -31 -77 -94 -99 -182 -43 -172 -37 -215
41 -291 28 -27 50 -53 50 -58 0 -20 -102 3 -171 38 -148 76 -241 150 -483 384
-172 166 -290 242 -374 242 -57 0 -102 -51 -102 -114 0 -39 51 -180 96 -266
75 -142 179 -281 319 -423 160 -163 341 -308 489 -391 91 -52 92 -55 4 -25
-126 44 -283 131 -378 212 -19 16 -103 96 -186 178 -151 148 -180 169 -234
169 -70 0 -103 -44 -106 -142 -3 -72 22 -154 76 -255 53 -100 74 -127 188
-241 171 -171 393 -295 697 -388 73 -22 70 -24 -20 -10 -16 2 -52 7 -80 11
-27 3 -57 8 -65 10 -8 2 -44 6 -80 10 -36 4 -78 9 -95 11 -51 8 -319 14 -343
8 -54 -15 -42 -110 20 -165 81 -70 346 -165 543 -194 22 -4 47 -8 55 -10 8 -3
33 -7 55 -10 22 -4 51 -8 65 -11 100 -17 270 -23 345 -11 79 12 211 39 265 54
30 8 62 16 70 18 8 1 23 5 32 9 9 4 21 5 27 2 5 -3 11 -3 13 2 1 4 53 23 113
41 140 44 245 86 370 149 332 167 413 196 570 196 111 1 139 -4 206 -35 40
-18 49 -29 69 -78 126 -303 524 -635 1125 -937 228 -114 248 -121 340 -119 44
2 186 6 315 9 129 3 329 9 443 12 l208 6 -17 -34 c-9 -18 -31 -55 -49 -83 -17
-27 -34 -57 -38 -65 -4 -8 -18 -33 -30 -55 -13 -22 -41 -74 -64 -115 -36 -66
-134 -246 -241 -440 -19 -36 -47 -87 -61 -113 -15 -30 -35 -53 -50 -59 -141
-53 -227 -120 -252 -197 -7 -20 -27 -63 -44 -96 -18 -33 -55 -103 -82 -155
-28 -52 -71 -133 -95 -180 -333 -631 -602 -1163 -596 -1180 2 -7 21 0 53 22
125 84 157 94 330 103 61 4 128 8 150 10 78 8 172 14 311 20 l140 7 0 -44 c-1
-23 -4 -48 -8 -54 -5 -7 -10 -29 -13 -50 -8 -61 -8 -374 -1 -422 4 -24 3 -49
-2 -55 -6 -7 -19 -46 -31 -87 -21 -78 -25 -95 -36 -170 l-7 -45 -152 -39
c-195 -50 -281 -64 -441 -73 -285 -16 -453 -7 -610 31 -194 47 -300 53 -395
22 -120 -39 -242 -108 -305 -171 -91 -91 -163 -257 -199 -457 -14 -78 -16
-377 -3 -433 2 -11 8 -42 11 -68 18 -120 30 -152 58 -153 13 0 50 -4 83 -8
437 -51 782 -55 931 -11 27 7 80 17 119 20 38 4 78 9 90 11 40 10 178 14 575
19 223 3 448 8 500 12 180 14 954 8 1375 -12 39 -1 147 -6 240 -10 94 -4 199
-8 235 -10 36 -2 126 -6 200 -10 74 -3 169 -8 210 -10 41 -3 122 -7 180 -10
58 -3 139 -7 180 -10 41 -2 129 -7 195 -10 66 -3 152 -8 190 -10 39 -3 115 -7
170 -10 55 -3 132 -8 170 -10 39 -3 120 -8 180 -11 61 -3 139 -7 175 -9 36 -2
117 -7 180 -10 63 -4 140 -9 170 -11 162 -12 450 -12 537 2 168 25 275 77 264
127 0 4 16 31 37 60 81 109 184 312 213 421 6 22 11 42 11 43 -1 2 4 17 9 35
5 18 12 70 14 116 7 152 -44 284 -146 378 -107 97 -294 174 -484 200 -27 3
-59 8 -70 10 -26 5 -318 5 -370 -1 -50 -5 -311 -6 -385 -1 -30 2 -109 7 -175
10 -136 7 -278 16 -345 21 -25 2 -85 7 -135 10 -89 6 -248 24 -253 29 -1 2
-12 27 -25 57 -60 143 -106 217 -154 250 -121 83 -141 112 -210 304 -9 27 -32
69 -51 93 -18 24 -29 41 -24 38 6 -3 12 -1 14 4 3 10 60 4 253 -25 50 -8 201
-33 235 -40 119 -23 184 -38 238 -54 58 -18 63 -18 57 -3 -4 9 -33 91 -66 182
-154 426 -449 1218 -522 1405 -70 179 -109 260 -132 280 -24 20 -28 33 -81
325 -2 14 -7 36 -9 50 -12 58 -15 76 -20 100 -2 14 -14 70 -25 125 -11 55 -23
116 -26 135 -3 19 -7 41 -9 48 -3 7 -1 11 3 9 19 -10 92 -41 254 -107 149 -60
223 -99 455 -238 l277 -165 65 16 c75 19 112 25 195 32 32 3 61 7 65 9 3 2 29
7 56 10 28 4 61 9 75 11 23 3 50 7 168 21 53 6 154 21 192 29 14 2 39 7 55 10
17 4 43 11 58 17 20 8 31 8 39 0 7 -7 21 -7 42 -1 17 6 45 12 61 14 38 6 72
13 93 19 9 3 33 8 52 11 119 20 220 53 220 71 0 8 54 -29 123 -84 274 -221
572 -431 802 -566 44 -25 87 -51 95 -56 54 -34 301 -150 319 -150 6 0 11 -4
11 -8 0 -4 8 -8 18 -9 9 0 46 -7 82 -15 85 -18 201 -15 345 12 28 5 69 11 92
14 24 3 71 13 105 21 73 19 113 22 130 8 13 -10 384 -183 393 -183 2 0 30 -12
62 -26 75 -34 103 -46 188 -78 39 -15 84 -33 100 -41 171 -75 970 -340 1150
-381 17 -4 36 -12 44 -18 8 -6 15 -9 15 -7 1 5 78 -9 91 -17 5 -3 16 -7 25 -8
8 -1 24 -5 35 -8 55 -15 152 -39 170 -41 11 -2 20 -4 20 -5 0 -1 7 -3 15 -5 8
-2 47 -11 85 -19 209 -48 541 -115 650 -133 17 -2 41 -6 55 -9 14 -2 52 -9 85
-14 33 -5 71 -12 85 -14 14 -3 45 -7 70 -10 25 -3 56 -8 70 -11 14 -3 43 -7
65 -9 22 -2 54 -7 70 -10 17 -3 57 -8 90 -11 33 -4 74 -8 90 -10 17 -2 49 -5
73 -6 23 -2 42 -5 42 -8 0 -3 26 -6 58 -6 31 1 65 -3 76 -8 12 -6 21 -5 26 3
5 8 10 9 14 2 4 -6 22 -10 41 -8 19 1 35 0 35 -3 0 -3 34 -7 75 -7 41 -1 88
-4 105 -8 21 -4 29 -2 24 5 -4 8 -1 8 12 2 11 -6 36 -9 57 -7 24 1 35 -1 31
-8 -5 -7 -2 -8 7 -2 19 12 42 11 51 -1 5 -6 8 -5 8 4 0 11 3 11 15 1 12 -10
15 -10 15 0 0 10 3 10 15 0 12 -10 15 -10 15 0 0 9 4 9 17 -1 15 -12 16 -12 8
1 -8 13 -7 13 8 1 14 -11 17 -11 17 0 0 12 2 12 9 0 6 -9 10 -10 16 -2 5 9 10
9 21 0 11 -9 14 -8 14 2 0 12 2 12 9 0 6 -9 10 -10 16 -2 5 9 10 9 21 0 11 -9
14 -8 14 2 0 12 2 12 9 0 6 -9 11 -10 15 -2 4 6 13 8 19 4 20 -12 37 -12 37 0
0 8 3 7 9 -2 6 -9 10 -10 16 -2 5 9 10 9 21 0 11 -9 14 -9 14 1 0 10 3 10 15
0 12 -10 15 -10 15 0 0 10 3 10 15 0 10 -9 15 -9 15 -1 0 13 22 10 32 -4 5 -6
8 -6 8 2 0 13 18 12 39 -1 9 -6 12 -5 7 2 -4 7 5 10 29 8 19 -2 35 1 35 6 0 6
6 5 15 -2 12 -10 15 -10 15 1 0 11 2 11 10 -1 5 -8 10 -10 10 -5 0 6 26 11 58
12 31 1 82 4 112 8 30 3 71 8 90 10 19 2 49 6 65 9 17 3 48 7 70 10 158 21
429 86 565 136 203 75 349 169 432 278 57 75 118 248 118 336 0 117 -74 264
-204 405 -34 36 -72 88 -86 115 -82 159 -349 357 -735 545 -169 82 -205 99
-390 174 -60 25 -172 68 -248 96 -95 36 -162 68 -216 105 -216 147 -538 246
-805 247 -62 1 -121 11 -256 46 -96 24 -183 47 -192 49 -10 2 -26 6 -35 9 -40
10 -142 34 -164 39 -13 2 -71 16 -129 30 -58 13 -116 27 -130 30 -295 61 -332
71 -376 100 -65 42 -225 96 -367 122 -107 19 -148 22 -297 19 -107 -2 -195 2
-250 10 -47 8 -107 17 -135 21 -27 3 -57 7 -65 9 -8 1 -35 6 -60 10 -25 4 -49
11 -55 15 -29 22 -104 34 -230 36 -77 2 -153 5 -170 7 -16 3 -66 8 -109 11
-44 4 -93 9 -110 11 -38 5 -195 16 -296 21 -104 5 -480 5 -510 0 -14 -3 -60
-7 -102 -10 -101 -8 -225 -30 -313 -56 -38 -11 -77 -22 -85 -24 -9 -2 -28 16
-46 43 -17 25 -40 54 -51 63 -19 18 -95 37 -124 32 -110 -18 -148 -31 -339
-114 -244 -105 -378 -151 -485 -166 -108 -14 -266 -84 -380 -166 -43 -31 -142
-116 -200 -172 l-70 -67 -55 7 c-58 6 -342 6 -495 -1 -49 -2 -151 -6 -225 -10
-74 -3 -155 -8 -180 -10 -25 -2 -97 -7 -160 -10 -63 -4 -132 -8 -153 -9 -24
-2 -46 3 -60 14 -12 9 -112 75 -222 145 -110 70 -229 147 -265 170 -64 42
-436 280 -538 344 -63 40 -69 50 -67 121 l1 55 -48 22 c-26 12 -59 25 -73 29
-28 7 -41 27 -39 59 1 11 2 46 3 79 l1 59 63 -8 c34 -4 73 -9 87 -11 41 -5
132 -14 188 -19 29 -2 72 -7 95 -9 43 -5 208 -15 352 -22 298 -13 719 0 965
31 19 2 62 7 95 11 33 3 69 8 80 10 11 2 58 11 105 19 199 35 469 108 575 155
22 9 51 21 65 25 47 15 256 124 331 174 56 37 90 69 126 118 107 146 187 272
248 390 l48 92 336 -2 c294 -1 347 1 426 17 175 37 311 110 417 226 75 81 114
143 178 287 68 152 84 218 84 343 0 118 -16 193 -71 330 -77 189 -164 288
-320 360 l-62 29 28 83 c36 103 163 489 165 503 1 6 12 39 23 75 24 72 74 237
78 254 1 6 5 18 8 26 23 59 103 370 113 440 3 19 7 42 9 50 3 8 7 42 10 75 4
33 8 71 10 85 3 14 7 56 10 95 3 38 8 88 10 110 4 37 9 117 20 315 6 102 7
269 1 278 -2 4 -7 30 -10 57 -4 28 -11 66 -16 85 -5 19 -12 53 -16 74 -3 21
-21 102 -41 180 -19 78 -36 148 -38 156 -13 55 -79 261 -110 345 -20 55 -44
118 -52 140 -13 35 -96 206 -134 275 -96 173 -368 437 -729 706 -143 107 -367
264 -377 264 -3 0 -22 12 -42 28 -20 15 -45 32 -56 39 -11 7 -51 31 -88 55
-37 24 -76 48 -85 53 -19 11 -23 75 -26 443 -2 185 -8 175 90 143 60 -20 288
-79 334 -87 14 -3 77 -15 140 -29 224 -47 484 -75 706 -77 151 -2 346 11 424
27 14 2 41 7 60 10 19 3 42 8 50 10 8 2 29 7 46 10 141 23 384 121 524 210
136 86 287 226 372 346 259 363 316 844 140 1184 -51 99 -171 217 -278 272
-125 65 -215 87 -366 87 -71 1 -128 4 -128 7 0 4 18 18 39 33 77 54 169 166
211 259 44 97 59 178 56 287 -6 146 -69 321 -153 420 -88 106 -329 214 -563
255 -19 3 -35 7 -37 8 -1 2 3 22 8 46 26 118 15 330 -27 520 -98 436 -343 794
-691 1010 -217 134 -463 213 -803 256 -30 4 -64 9 -75 11 -85 16 -393 22 -555
10 -139 -9 -138 -9 -389 -62 -62 -13 -205 -66 -293 -108 -163 -79 -291 -171
-385 -278 -35 -40 -43 -45 -48 -29 -7 24 -113 131 -183 185 -215 165 -524 290
-832 337 -109 16 -408 18 -520 3z m-843 -16815 c20 1 56 -37 90 -94 6 -11 55
-88 107 -172 53 -84 96 -154 96 -157 0 -2 19 -35 42 -72 62 -103 156 -304 168
-360 5 -27 12 -90 14 -141 13 -247 42 -303 234 -458 72 -57 73 -59 70 -99 -3
-36 -7 -41 -28 -41 -22 1 -160 15 -200 20 -8 1 -46 6 -85 10 -38 4 -83 8 -100
11 -16 2 -59 6 -95 9 -36 4 -81 8 -100 10 -72 8 -188 16 -290 20 -58 2 -111 4
-118 4 -8 1 7 25 32 53 62 71 75 101 79 189 5 116 -12 178 -95 344 l-75 150 2
200 c3 224 9 300 41 470 24 126 13 115 107 109 45 -3 92 -6 104 -5z"/>
</g>
</svg>
